<svg xmlns="http://www.w3.org/2000/svg" xmlns:xlink="http://www.w3.org/1999/xlink" viewBox="0 0 200 200"><defs><style>.cls-1{fill:none;}.cls-2{clip-path:url(#clip-path);}.cls-3{fill:url(#New_Gradient_refahh);}.cls-4{fill:url(#New_Gradient_refahh-2);}.cls-5{fill:url(#New_Gradient_refahh-3);}.cls-6{fill:url(#New_Gradient_orange_refah);}.cls-7{fill:url(#New_Gradient_orange_refah-2);}</style><clipPath id="clip-path"><rect class="cls-1" width="200" height="200"/></clipPath><linearGradient id="New_Gradient_refahh" x1="26.99" y1="98.08" x2="172.78" y2="98.08" gradientUnits="userSpaceOnUse"><stop offset="0.28" stop-color="#003e9d"/><stop offset="0.93" stop-color="#f1107b"/></linearGradient><linearGradient id="New_Gradient_refahh-2" x1="90.88" y1="107.41" x2="102.81" y2="107.41" xlink:href="#New_Gradient_refahh"/><linearGradient id="New_Gradient_refahh-3" x1="90.88" y1="117.78" x2="142.08" y2="117.78" xlink:href="#New_Gradient_refahh"/><linearGradient id="New_Gradient_orange_refah" x1="90.88" y1="129.25" x2="142.08" y2="129.25" gradientUnits="userSpaceOnUse"><stop offset="0.28" stop-color="#ff530c"/><stop offset="0.93" stop-color="#ff9b1d"/></linearGradient><linearGradient id="New_Gradient_orange_refah-2" x1="90.08" y1="68.36" x2="172.78" y2="68.36" xlink:href="#New_Gradient_orange_refah"/></defs><g id="سامانه_چک_صیادی" data-name="سامانه چک صیادی"><g class="cls-2"><path class="cls-3" d="M165.85,89.69H83.09V79.88A12.85,12.85,0,0,0,70.25,67.05H52.8V51.32a6.93,6.93,0,0,0-6.93-6.92h-6A12.85,12.85,0,0,0,27,57.24v59A12.85,12.85,0,0,0,39.84,129.1H57.29c0,16.69-.11,16,.13,17.22a6.83,6.83,0,0,0,6.67,5.44H165.85a6.94,6.94,0,0,0,6.93-6.93V96.62a6.94,6.94,0,0,0-6.93-6.93Zm-95.6,59H64.09a3.78,3.78,0,0,1-3.69-3c-.14-.7,0-.18-.08-16.6h9.93a9.83,9.83,0,0,1,9.8,9.8v0a9.81,9.81,0,0,1-9.8,9.79ZM30,57.24a9.81,9.81,0,0,1,9.8-9.8h6a3.89,3.89,0,0,1,3.89,3.88V99.54a3.89,3.89,0,0,1-3.89,3.88h-6A12.8,12.8,0,0,0,30,108V57.24Zm0,59h0a9.82,9.82,0,0,1,9.8-9.8h6a6.94,6.94,0,0,0,6.93-6.92V70.09H70.25a9.81,9.81,0,0,1,9.8,9.79v50.73a13.07,13.07,0,0,0-9.8-4.55H39.84A9.81,9.81,0,0,1,30,116.27Zm139.71,28.56a3.89,3.89,0,0,1-3.89,3.89H78.52a12.83,12.83,0,0,0,4.57-9.81V92.73h82.76a3.9,3.9,0,0,1,3.89,3.89Zm0,0"/><path class="cls-4" d="M92.4,108.92h8.89a1.52,1.52,0,1,0,0-3H92.4a1.52,1.52,0,1,0,0,3Zm0,0"/><path class="cls-5" d="M140.56,116.26H92.4a1.52,1.52,0,0,0,0,3h48.16a1.52,1.52,0,1,0,0-3Zm0,0"/><path class="cls-6" d="M140.56,127.73H92.4a1.52,1.52,0,1,0,0,3h48.16a1.52,1.52,0,1,0,0-3Zm0,0"/><path class="cls-7" d="M167.2,63.89h-2A6.08,6.08,0,0,0,159.11,58H134.85a1.52,1.52,0,1,0,0,3h24.26a3,3,0,0,1,3,2.84H102.59a1.63,1.63,0,0,0-.86.27l-8.1,5.63h-2a1.52,1.52,0,0,0,0,3h2l8.1,5.61a1.69,1.69,0,0,0,.86.28H167.2a5.58,5.58,0,0,0,5.58-5.58V69.46a5.57,5.57,0,0,0-5.58-5.57Zm-66.12,4.42v6l-4.32-3Zm3-1.39h58v8.76h-58Zm65.63,6.22a2.54,2.54,0,0,1-2.54,2.54h-2V66.92h2a2.54,2.54,0,0,1,2.54,2.54Zm0,0"/></g></g></svg>