<svg xmlns="http://www.w3.org/2000/svg" xmlns:xlink="http://www.w3.org/1999/xlink" viewBox="0 0 200 200"><defs><style>.cls-1{fill:none;}.cls-2{clip-path:url(#clip-path);}.cls-3{fill:url(#New_Gradient_refahh);}.cls-4{fill:url(#New_Gradient_refahh-2);}.cls-5{fill:url(#New_Gradient_refahh-3);}.cls-6{fill:url(#New_Gradient_refahh-4);}.cls-7{fill:url(#New_Gradient_orange_refah);}.cls-8{fill:url(#New_Gradient_orange_refah-2);}</style><clipPath id="clip-path"><rect class="cls-1" width="200" height="200"/></clipPath><linearGradient id="New_Gradient_refahh" x1="55.84" y1="100.12" x2="170.32" y2="100.12" gradientUnits="userSpaceOnUse"><stop offset="0.28" stop-color="#003e9d"/><stop offset="0.93" stop-color="#f1107b"/></linearGradient><linearGradient id="New_Gradient_refahh-2" x1="55.84" y1="38.05" x2="170.32" y2="38.05" xlink:href="#New_Gradient_refahh"/><linearGradient id="New_Gradient_refahh-3" x1="55.84" y1="128.81" x2="170.32" y2="128.81" xlink:href="#New_Gradient_refahh"/><linearGradient id="New_Gradient_refahh-4" x1="55.84" y1="136.07" x2="170.32" y2="136.07" xlink:href="#New_Gradient_refahh"/><linearGradient id="New_Gradient_orange_refah" x1="55.9" y1="71.01" x2="170.38" y2="71.01" gradientUnits="userSpaceOnUse"><stop offset="0.28" stop-color="#ff530c"/><stop offset="0.93" stop-color="#ff9b1d"/></linearGradient><linearGradient id="New_Gradient_orange_refah-2" x1="55.9" y1="71.01" x2="170.38" y2="71.01" xlink:href="#New_Gradient_orange_refah"/></defs><g id="همراه_کارت_رفاه" data-name="همراه کارت رفاه"><g class="cls-2"><path class="cls-3" d="M162.56,95.17H147.63V35a9.32,9.32,0,0,0-9.31-9.32H65.15A9.33,9.33,0,0,0,55.84,35V165.3a9.32,9.32,0,0,0,9.31,9.31h73.17a9.31,9.31,0,0,0,9.31-9.31V148.2h14.93a7.77,7.77,0,0,0,7.76-7.76V102.93A7.77,7.77,0,0,0,162.56,95.17Zm-18,70.13a6.22,6.22,0,0,1-6.21,6.21H65.15A6.21,6.21,0,0,1,59,165.3V35a6.21,6.21,0,0,1,6.2-6.21h73.17A6.21,6.21,0,0,1,144.53,35V95.17h-7.76V38.05a1.54,1.54,0,0,0-1.55-1.55H123.47a1.54,1.54,0,0,0-1.55,1.55v2.48a3.11,3.11,0,0,1-3.1,3.11H84.65a3.11,3.11,0,0,1-3.11-3.11V38.05A1.54,1.54,0,0,0,80,36.5H68.24a1.54,1.54,0,0,0-1.55,1.55V153.91a1.54,1.54,0,0,0,1.55,1.55h67a1.54,1.54,0,0,0,1.55-1.55V148.2h7.76ZM98.18,148.2h35.49v4.16H69.79V39.6h8.65v.93a6.21,6.21,0,0,0,6.21,6.21h34.17a6.21,6.21,0,0,0,6.2-6.21V39.6h8.65V95.17H98.18a7.77,7.77,0,0,0-7.76,7.76v37.51A7.77,7.77,0,0,0,98.18,148.2Zm69-7.76a4.66,4.66,0,0,1-4.66,4.65H98.18a4.66,4.66,0,0,1-4.66-4.65V121.23h73.7Zm0-22.32H93.52V110.7h73.7Zm0-10.52H93.52v-4.67a4.66,4.66,0,0,1,4.66-4.66h64.38a4.66,4.66,0,0,1,4.66,4.66Z"/><path class="cls-4" d="M92,39.6H111.5a1.55,1.55,0,0,0,0-3.1H92a1.55,1.55,0,1,0,0,3.1Z"/><path class="cls-5" d="M100.36,130.36h20.27a1.56,1.56,0,0,0,0-3.11H100.36a1.56,1.56,0,0,0,0,3.11Z"/><path class="cls-6" d="M117.58,136.07a1.55,1.55,0,0,0,1.56,1.55H129a1.55,1.55,0,1,0,0-3.1h-9.83A1.55,1.55,0,0,0,117.58,136.07Z"/><path class="cls-6" d="M100.36,137.62h11.27a1.55,1.55,0,1,0,0-3.1H100.36a1.55,1.55,0,1,0,0,3.1Z"/><path class="cls-7" d="M101.79,52.73A18.28,18.28,0,1,0,120.07,71,18.29,18.29,0,0,0,101.79,52.73Zm0,33.45A15.18,15.18,0,1,1,117,71,15.19,15.19,0,0,1,101.79,86.18Z"/><path class="cls-8" d="M105.81,66.19l-6.34,6.34-1.7-1.69A1.55,1.55,0,0,0,95.58,73l2.79,2.79a1.55,1.55,0,0,0,2.2,0L108,68.38a1.55,1.55,0,0,0-2.2-2.19Z"/></g></g></svg>