<svg xmlns="http://www.w3.org/2000/svg" xmlns:xlink="http://www.w3.org/1999/xlink" viewBox="0 0 200 200"><defs><style>.cls-1{fill:none;}.cls-2{clip-path:url(#clip-path);}.cls-3{fill:url(#New_Gradient_refahh);}.cls-4{fill:url(#New_Gradient_orange_refah);}.cls-5{fill:url(#New_Gradient_orange_refah-2);}</style><clipPath id="clip-path"><rect class="cls-1" width="200" height="200"/></clipPath><linearGradient id="New_Gradient_refahh" x1="30.56" y1="99.62" x2="161.94" y2="99.62" gradientUnits="userSpaceOnUse"><stop offset="0.28" stop-color="#003e9d"/><stop offset="0.93" stop-color="#f1107b"/></linearGradient><linearGradient id="New_Gradient_orange_refah" x1="76.87" y1="61.25" x2="142.42" y2="61.25" gradientUnits="userSpaceOnUse"><stop offset="0.28" stop-color="#ff530c"/><stop offset="0.93" stop-color="#ff9b1d"/></linearGradient><linearGradient id="New_Gradient_orange_refah-2" x1="86.07" y1="61.25" x2="133.21" y2="61.25" xlink:href="#New_Gradient_orange_refah"/></defs><g id="کمک_به_سازمانهای_خیریه" data-name="کمک به سازمانهای خیریه"><g class="cls-2"><path class="cls-3" d="M109.73,85.16a24,24,0,1,1,24-24,24,24,0,0,1-24,24Zm21-24a21,21,0,1,0-21,21,21,21,0,0,0,21-21ZM30.56,160.8V130.75A5.78,5.78,0,0,1,36.33,125h14.6a5.76,5.76,0,0,1,5.27,3.44h2a6.82,6.82,0,0,1,5.26,2.5,38.67,38.67,0,0,0,12.17-3c4.19-2,12.45.17,24.55,6.45a29.25,29.25,0,0,0,8.09,2.73V122.38H94.84A24.24,24.24,0,0,1,70.63,98.17a1.51,1.51,0,0,1,1.51-1.5H87a24,24,0,0,1,17.11,7.09,24.82,24.82,0,0,1,4.08,5.44V94.79a33.65,33.65,0,1,1,3,0V109a24.63,24.63,0,0,1,4-5.25c10.22-10.22,22-6.17,32-7.09a1.5,1.5,0,0,1,1.5,1.5,24.23,24.23,0,0,1-24.2,24.21H111.24v15.16l13.4,1.4a7.07,7.07,0,0,1,6.15,5.32l21.76-9.11a6.78,6.78,0,0,1,5.72,12.28l-42.12,21.74a23,23,0,0,1-21.26-.11l-13.6-7.18c-4.1-2.13-13-2-17.39-1.85a6.88,6.88,0,0,1-5.74,3.09H56.21a5.78,5.78,0,0,1-5.28,3.45H36.33a5.77,5.77,0,0,1-5.77-5.77Zm77.62-41.43A21.1,21.1,0,0,0,102,105.88c-9-9-19-5.36-28.34-6.2a21.23,21.23,0,0,0,21.15,19.69Zm3.06-.56v.56h13.28a21.22,21.22,0,0,0,21.14-19.69c-8.92.8-19.37-2.76-28.33,6.2a21.12,21.12,0,0,0-6.09,12.93Zm-1.51-27A30.65,30.65,0,1,0,79.08,61.17a30.68,30.68,0,0,0,30.65,30.65Zm-44.87,42c.3,1.33.19,22.47.11,23.2,5.46-.18,13.44,0,17.71,2.24,7.68,4,11,5.78,13.62,7.19a20,20,0,0,0,18.47.09l42.13-21.75a3.79,3.79,0,0,0,1.13-5.82,3.83,3.83,0,0,0-4.33-1l-23.18,9.71c-1.05,1.66-5,6.4-15.32,6.4-6,0-14-1.57-24.85-6.22a1.5,1.5,0,0,1,1.18-2.76c27.89,11.95,35.38,2.66,36.45,1a4.12,4.12,0,0,0-3.65-4.1c-11.35-1.57-17.48-.7-25.57-4.87-10.59-5.5-18.76-7.89-21.88-6.41a39.9,39.9,0,0,1-12,3.13ZM56.7,160.12h1.46A3.88,3.88,0,0,0,62,156.24V135.3a3.88,3.88,0,0,0-3.88-3.87H56.7Zm-23.13.68a2.77,2.77,0,0,0,2.76,2.77h14.6a2.77,2.77,0,0,0,2.77-2.77V130.75A2.77,2.77,0,0,0,50.93,128H36.33a2.77,2.77,0,0,0-2.76,2.77Zm0,0"/><path class="cls-4" d="M109.64,28.47a32.78,32.78,0,1,0,32.78,32.78,32.81,32.81,0,0,0-32.78-32.78Zm0,62.71a29.93,29.93,0,1,1,29.93-29.93,30,30,0,0,1-29.93,29.93Zm0,0"/><path class="cls-5" d="M109.64,37.68a23.57,23.57,0,1,0,23.57,23.57,23.6,23.6,0,0,0-23.57-23.57Zm0,44.29a20.72,20.72,0,1,1,20.72-20.72A20.74,20.74,0,0,1,109.64,82Zm0,0"/></g></g></svg>