<svg xmlns="http://www.w3.org/2000/svg" xmlns:xlink="http://www.w3.org/1999/xlink" viewBox="0 0 200 200"><defs><style>.cls-1{fill:none;}.cls-2{clip-path:url(#clip-path);}.cls-3{fill:url(#New_Gradient_refahh);}.cls-4{fill:url(#New_Gradient_refahh-2);}.cls-5{fill:url(#New_Gradient_orange_refah);}.cls-6{fill:url(#New_Gradient_orange_refah-2);}</style><clipPath id="clip-path"><rect class="cls-1" width="200" height="200"/></clipPath><linearGradient id="New_Gradient_refahh" x1="27.19" y1="100" x2="172.81" y2="100" gradientUnits="userSpaceOnUse"><stop offset="0.28" stop-color="#003e9d"/><stop offset="0.93" stop-color="#f1107b"/></linearGradient><linearGradient id="New_Gradient_refahh-2" x1="38.09" y1="70.83" x2="161.91" y2="70.83" xlink:href="#New_Gradient_refahh"/><linearGradient id="New_Gradient_orange_refah" x1="64.3" y1="121.93" x2="135.7" y2="121.93" gradientUnits="userSpaceOnUse"><stop offset="0.28" stop-color="#ff530c"/><stop offset="0.93" stop-color="#ff9b1d"/></linearGradient><linearGradient id="New_Gradient_orange_refah-2" x1="74.33" y1="121.93" x2="125.67" y2="121.93" xlink:href="#New_Gradient_orange_refah"/></defs><g id="سامانه_نوبت_دهی_سکه" data-name="سامانه نوبت دهی سکه"><g class="cls-2"><path class="cls-3" d="M39,174.57H161a11.81,11.81,0,0,0,11.8-11.8V47.67A11.81,11.81,0,0,0,161,35.87H142.58c-.66-6-4.15-10.44-8.51-10.44s-7.87,4.44-8.53,10.44h-17c-.66-6-4.15-10.44-8.51-10.44s-7.87,4.44-8.53,10.44h-17c-.66-6-4.16-10.44-8.51-10.44s-7.87,4.44-8.53,10.44H39a11.81,11.81,0,0,0-11.8,11.8v115.1A11.81,11.81,0,0,0,39,174.57Zm0-135.1h32.4c-.45,4.38-2.76,7.84-5.44,7.84a1.55,1.55,0,0,0,0,3.1c4.48,0,8-4.69,8.56-10.94h30.94c-.45,4.38-2.76,7.84-5.44,7.84a1.55,1.55,0,0,0,0,3.1c4.48,0,8-4.69,8.56-10.94h30.94c-.45,4.38-2.76,7.84-5.44,7.84a1.55,1.55,0,1,0,0,3.1c4.48,0,8.05-4.69,8.56-10.94H161a8.7,8.7,0,0,1,8.69,8.7V162.28A8.7,8.7,0,0,1,161,171H39a8.7,8.7,0,0,1-8.69-8.69V48.17A8.7,8.7,0,0,1,39,39.47Zm95.08-10.94c2.58,0,4.82,3.2,5.38,7.34H128.67c.57-4.14,2.81-7.34,5.4-7.34Zm-34.06,0c2.58,0,4.81,3.2,5.38,7.34H94.61c.57-4.14,2.81-7.34,5.4-7.34ZM66,28.53c2.58,0,4.81,3.2,5.38,7.34H60.55c.57-4.14,2.81-7.34,5.4-7.34Zm0,0"/><path class="cls-4" d="M39.64,72.39H160.36a1.56,1.56,0,0,0,0-3.11H39.64a1.56,1.56,0,0,0,0,3.11Zm0,0"/><path class="cls-5" d="M100,86.23a35.7,35.7,0,1,0,35.7,35.7A35.73,35.73,0,0,0,100,86.23Zm0,68.3a32.6,32.6,0,1,1,32.6-32.6,32.64,32.64,0,0,1-32.6,32.6Zm0,0"/><path class="cls-6" d="M100,96.26a25.67,25.67,0,1,0,25.67,25.67A25.7,25.7,0,0,0,100,96.26Zm0,48.24a22.57,22.57,0,1,1,22.56-22.57A22.6,22.6,0,0,1,100,144.5Zm0,0"/></g></g></svg>