<svg xmlns="http://www.w3.org/2000/svg" xmlns:xlink="http://www.w3.org/1999/xlink" viewBox="0 0 200 200"><defs><style>.cls-1{fill:none;}.cls-2{clip-path:url(#clip-path);}.cls-3{fill:url(#New_Gradient_refahh);}.cls-4{fill:url(#New_Gradient_refahh-2);}.cls-5{fill:url(#New_Gradient_orange_refah);}.cls-6{fill:url(#New_Gradient_orange_refah-2);}.cls-7{fill:url(#New_Gradient_orange_refah-3);}.cls-8{fill:url(#New_Gradient_orange_refah-4);}.cls-9{fill:url(#New_Gradient_orange_refah-5);}.cls-10{fill:url(#New_Gradient_orange_refah-6);}</style><clipPath id="clip-path"><rect class="cls-1" width="200" height="200"/></clipPath><linearGradient id="New_Gradient_refahh" x1="41.82" y1="100.5" x2="130.8" y2="100.5" gradientUnits="userSpaceOnUse"><stop offset="0.28" stop-color="#003e9d"/><stop offset="0.93" stop-color="#f1107b"/></linearGradient><linearGradient id="New_Gradient_refahh-2" x1="74.74" y1="159.42" x2="97.88" y2="159.42" xlink:href="#New_Gradient_refahh"/><linearGradient id="New_Gradient_orange_refah" x1="86.98" y1="98.14" x2="93.73" y2="98.14" gradientUnits="userSpaceOnUse"><stop offset="0.28" stop-color="#ff530c"/><stop offset="0.93" stop-color="#ff9b1d"/></linearGradient><linearGradient id="New_Gradient_orange_refah-2" x1="150.93" y1="98.14" x2="157.69" y2="98.14" xlink:href="#New_Gradient_orange_refah"/><linearGradient id="New_Gradient_orange_refah-3" x1="70.99" y1="98.14" x2="77.74" y2="98.14" xlink:href="#New_Gradient_orange_refah"/><linearGradient id="New_Gradient_orange_refah-4" x1="166.92" y1="98.14" x2="173.67" y2="98.14" xlink:href="#New_Gradient_orange_refah"/><linearGradient id="New_Gradient_orange_refah-5" x1="63.56" y1="98.14" x2="181.1" y2="98.14" xlink:href="#New_Gradient_orange_refah"/><linearGradient id="New_Gradient_orange_refah-6" x1="112.2" y1="98.14" x2="132.47" y2="98.14" xlink:href="#New_Gradient_orange_refah"/></defs><g id="رمز_یکباار_مصرف" data-name="رمز یکباار مصرف"><g class="cls-2"><path class="cls-3" d="M118,25.43H54.66A12.84,12.84,0,0,0,41.82,38.27V162.73a12.84,12.84,0,0,0,12.84,12.84H118a12.85,12.85,0,0,0,12.84-12.84V131.78a2,2,0,1,0-4,0v11.28H45.86V49.74h80.9V64.42a2,2,0,0,0,4,0V38.27A12.85,12.85,0,0,0,118,25.43Zm8.8,121.67v15.63a8.81,8.81,0,0,1-8.8,8.8H54.66a8.81,8.81,0,0,1-8.8-8.8V147.1ZM45.86,45.7V38.27a8.81,8.81,0,0,1,8.8-8.8H118a8.81,8.81,0,0,1,8.8,8.8V45.7Zm0,0"/><path class="cls-4" d="M76.76,161.44H95.85a2,2,0,1,0,0-4.05H76.76a2,2,0,0,0,0,4.05Zm0,0"/><path class="cls-5" d="M90.35,94.76a3.38,3.38,0,1,0,3.38,3.38,3.38,3.38,0,0,0-3.38-3.38Zm0,3.6a.22.22,0,0,1,0-.44.22.22,0,0,1,0,.44Zm0,0"/><path class="cls-6" d="M154.31,101.52a3.38,3.38,0,1,0-3.38-3.38,3.38,3.38,0,0,0,3.38,3.38Zm0-3.6a.22.22,0,1,1-.22.22.22.22,0,0,1,.22-.22Zm0,0"/><path class="cls-7" d="M74.36,94.76a3.38,3.38,0,1,0,3.38,3.38,3.38,3.38,0,0,0-3.38-3.38Zm0,3.6a.22.22,0,0,1,0-.44.22.22,0,1,1,0,.44Zm0,0"/><path class="cls-8" d="M170.3,101.52a3.38,3.38,0,1,0-3.38-3.38,3.37,3.37,0,0,0,3.38,3.38Zm0-3.6a.22.22,0,1,1-.22.22.22.22,0,0,1,.22-.22Zm0,0"/><path class="cls-9" d="M141.35,108.34H178a3.13,3.13,0,0,0,3.12-3.12V91.07A3.12,3.12,0,0,0,178,88H141.35a21.57,21.57,0,0,0-38,0H66.68a3.12,3.12,0,0,0-3.12,3.12v14.15a3.14,3.14,0,0,0,3.12,3.12h36.63a21.58,21.58,0,0,0,38,0Zm36.15-16.8v13.2H142.89a21.71,21.71,0,0,0,0-13.2ZM67.16,104.74V91.54h34.62a21.56,21.56,0,0,0,0,13.2Zm55.17,11.39a18,18,0,1,1,18-18,18,18,0,0,1-18,18Zm0,0"/><path class="cls-10" d="M129.39,91.56,120,100.91l-4.77-4.77a1.8,1.8,0,1,0-2.54,2.54l6,6a1.78,1.78,0,0,0,2.54,0l10.62-10.61a1.8,1.8,0,1,0-2.54-2.55Zm0,0"/></g></g></svg>