<svg xmlns="http://www.w3.org/2000/svg" xmlns:xlink="http://www.w3.org/1999/xlink" viewBox="0 0 200 200"><defs><style>.cls-1{fill:none;}.cls-2{clip-path:url(#clip-path);}.cls-3{fill:url(#New_Gradient_refahh);}.cls-4{fill:url(#New_Gradient_refahh-2);}.cls-5{fill:url(#New_Gradient_orange_refah);}.cls-6{fill:url(#New_Gradient_orange_refah-2);}.cls-7{fill:url(#New_Gradient_orange_refah-3);}.cls-8{fill:url(#New_Gradient_orange_refah-4);}</style><clipPath id="clip-path"><rect class="cls-1" width="200" height="200"/></clipPath><linearGradient id="New_Gradient_refahh" x1="43.36" y1="101.01" x2="131.02" y2="101.01" gradientUnits="userSpaceOnUse"><stop offset="0.28" stop-color="#003e9d"/><stop offset="0.93" stop-color="#f1107b"/></linearGradient><linearGradient id="New_Gradient_refahh-2" x1="75.79" y1="159.05" x2="98.58" y2="159.05" xlink:href="#New_Gradient_refahh"/><linearGradient id="New_Gradient_orange_refah" x1="84.99" y1="97.9" x2="168.05" y2="97.9" gradientUnits="userSpaceOnUse"><stop offset="0.28" stop-color="#ff530c"/><stop offset="0.93" stop-color="#ff9b1d"/></linearGradient><linearGradient id="New_Gradient_orange_refah-2" x1="84.99" y1="91.97" x2="168.05" y2="91.97" xlink:href="#New_Gradient_orange_refah"/><linearGradient id="New_Gradient_orange_refah-3" x1="84.99" y1="79.03" x2="168.05" y2="79.03" xlink:href="#New_Gradient_orange_refah"/><linearGradient id="New_Gradient_orange_refah-4" x1="84.99" y1="104.91" x2="168.05" y2="104.91" xlink:href="#New_Gradient_orange_refah"/></defs><g id="رفاه_پرداخت" data-name="رفاه پرداخت"><g class="cls-2"><path class="cls-3" d="M118.37,27.05H56A12.67,12.67,0,0,0,43.36,39.7V162.31A12.67,12.67,0,0,0,56,175h62.36A12.67,12.67,0,0,0,131,162.31V131.82a2,2,0,0,0-4,0v11.11H47.34V51H127V65.47a2,2,0,0,0,4,0V39.7a12.67,12.67,0,0,0-12.65-12.65ZM127,146.92v15.39a8.68,8.68,0,0,1-8.66,8.67H56a8.69,8.69,0,0,1-8.67-8.67V146.92ZM47.34,47V39.7A8.68,8.68,0,0,1,56,31h62.36A8.66,8.66,0,0,1,127,39.7V47Zm0,0"/><path class="cls-4" d="M77.78,161H96.59a2,2,0,0,0,0-4H77.78a2,2,0,0,0,0,4Zm0,0"/><path class="cls-5" d="M162.17,70.32H102.73a5.89,5.89,0,0,0-5.88,5.88v0h0a5.89,5.89,0,0,0-5.89,5.88v0h0A5.89,5.89,0,0,0,85,88.06V119.6a5.89,5.89,0,0,0,5.88,5.88h59.45a5.89,5.89,0,0,0,5.88-5.88v0h0a5.89,5.89,0,0,0,5.89-5.88v0h0a5.89,5.89,0,0,0,5.88-5.88V76.2A5.89,5.89,0,0,0,162.17,70.32Zm-7.7,49.28a4.15,4.15,0,0,1-4.15,4.15H90.87a4.15,4.15,0,0,1-4.15-4.15V88.06a4.16,4.16,0,0,1,4.15-4.16h0v29.77a5.89,5.89,0,0,0,5.89,5.88h57.66Zm5.93-5.93a4.16,4.16,0,0,1-4.16,4.15H96.81a4.15,4.15,0,0,1-4.16-4.15V82.13A4.15,4.15,0,0,1,96.81,78h0v29.76a5.89,5.89,0,0,0,5.88,5.88H160.4Zm5.92-5.93a4.15,4.15,0,0,1-4.15,4.15H102.73a4.15,4.15,0,0,1-4.15-4.15V76.2a4.15,4.15,0,0,1,4.15-4.15h59.44a4.15,4.15,0,0,1,4.15,4.15Z"/><path class="cls-6" d="M132.45,79.49A12.48,12.48,0,1,0,144.93,92,12.5,12.5,0,0,0,132.45,79.49Zm0,23.23A10.75,10.75,0,1,1,143.2,92,10.76,10.76,0,0,1,132.45,102.72Z"/><path class="cls-7" d="M105.55,75.34a3.7,3.7,0,1,0,3.7,3.69A3.69,3.69,0,0,0,105.55,75.34Zm0,5.66a2,2,0,1,1,2-2A2,2,0,0,1,105.55,81Z"/><path class="cls-8" d="M159.34,101.22a3.69,3.69,0,1,0,3.69,3.69A3.69,3.69,0,0,0,159.34,101.22Zm0,5.65a2,2,0,1,1,2-2A2,2,0,0,1,159.34,106.87Z"/></g></g></svg>