<?xml version="1.0" encoding="UTF-8"?>
<!DOCTYPE svg PUBLIC "-//W3C//DTD SVG 1.1//EN" "http://www.w3.org/Graphics/SVG/1.1/DTD/svg11.dtd">
<svg xmlns="http://www.w3.org/2000/svg" version="1.1" width="24px" height="24px" style="shape-rendering:geometricPrecision; text-rendering:geometricPrecision; image-rendering:optimizeQuality; fill-rule:evenodd; clip-rule:evenodd" xmlns:xlink="http://www.w3.org/1999/xlink">
<g><path style="opacity:0.41" fill="#f9fafb" d="M 4.5,1.5 C 4.17949,6.69463 4.51283,11.6946 5.5,16.5C 5.5,16.8333 5.5,17.1667 5.5,17.5C 4.54885,18.9187 4.21552,20.5853 4.5,22.5C 3.16667,15.5 3.16667,8.5 4.5,1.5 Z"/></g>
<g><path style="opacity:0.632" fill="#f4f6f7" d="M 19.5,6.5 C 19.1583,7.33825 18.4916,7.67158 17.5,7.5C 16.5,7.5 15.5,7.5 14.5,7.5C 13.8333,7.5 13.5,7.16667 13.5,6.5C 14.2891,6.21719 14.9558,5.71719 15.5,5C 11.9733,4.1925 8.63995,4.35916 5.5,5.5C 5.5,9.16667 5.5,12.8333 5.5,16.5C 4.51283,11.6946 4.17949,6.69463 4.5,1.5C 7.97579,0.356734 11.6425,0.190067 15.5,1C 16.7473,2.95195 18.0807,4.78528 19.5,6.5 Z"/></g>
<g><path style="opacity:0.288" fill="#fbfbfc" d="M 5.5,5.5 C 8.63995,4.35916 11.9733,4.1925 15.5,5C 14.9558,5.71719 14.2891,6.21719 13.5,6.5C 11.0521,5.52693 8.38544,5.1936 5.5,5.5 Z"/></g>
<g><path style="opacity:0.79" fill="#f6f8f8" d="M 13.5,6.5 C 13.5,7.16667 13.8333,7.5 14.5,7.5C 12.7305,10.8469 13.3971,13.5136 16.5,15.5C 19.9693,13.167 20.3026,10.5004 17.5,7.5C 18.4916,7.67158 19.1583,7.33825 19.5,6.5C 20.1174,6.61071 20.6174,6.94404 21,7.5C 22.4186,11.8723 21.2519,15.2057 17.5,17.5C 16.6522,16.375 15.6522,16.375 14.5,17.5C 14.5,16.8333 14.1667,16.5 13.5,16.5C 13.5,15.8333 13.1667,15.5 12.5,15.5C 10.615,13.2046 10.115,10.538 11,7.5C 11.6708,6.74756 12.5041,6.41423 13.5,6.5 Z M 14.5,7.5 C 15.5,7.5 16.5,7.5 17.5,7.5C 20.3026,10.5004 19.9693,13.167 16.5,15.5C 13.3971,13.5136 12.7305,10.8469 14.5,7.5 Z"/></g>
<g><path style="opacity:0.039" fill="#fefefe" d="M 12.5,15.5 C 13.1667,15.5 13.5,15.8333 13.5,16.5C 13.5,16.8333 13.5,17.1667 13.5,17.5C 10.8333,17.5 8.16667,17.5 5.5,17.5C 5.5,17.1667 5.5,16.8333 5.5,16.5C 8.0593,16.8016 10.3926,16.4682 12.5,15.5 Z"/></g>
<g><path style="opacity:0.858" fill="#f3f5f6" d="M 17.5,17.5 C 17.7845,19.4147 17.4511,21.0813 16.5,22.5C 15.6618,22.1583 15.3284,21.4916 15.5,20.5C 15.5,20.1667 15.5,19.8333 15.5,19.5C 12.1667,18.1667 8.83333,18.1667 5.5,19.5C 5.5,20.1667 5.5,20.8333 5.5,21.5C 5.5,22.1667 5.16667,22.5 4.5,22.5C 4.21552,20.5853 4.54885,18.9187 5.5,17.5C 8.16667,17.5 10.8333,17.5 13.5,17.5C 13.8333,17.5 14.1667,17.5 14.5,17.5C 15.6522,16.375 16.6522,16.375 17.5,17.5 Z M 5.5,19.5 C 6.5,19.5 7.5,19.5 8.5,19.5C 8.17876,21.0481 7.17876,21.7148 5.5,21.5C 5.5,20.8333 5.5,20.1667 5.5,19.5 Z M 15.5,19.5 C 15.5,19.8333 15.5,20.1667 15.5,20.5C 14.609,21.1098 13.609,21.4431 12.5,21.5C 12.8212,19.9519 13.8212,19.2852 15.5,19.5 Z"/></g>
<g><path style="opacity:0.277" fill="#fafbfb" d="M 5.5,19.5 C 8.83333,18.1667 12.1667,18.1667 15.5,19.5C 13.8212,19.2852 12.8212,19.9519 12.5,21.5C 11.5326,20.1938 10.1993,19.5271 8.5,19.5C 7.5,19.5 6.5,19.5 5.5,19.5 Z"/></g>
<g><path style="opacity:0.524" fill="#f6f8f9" d="M 8.5,19.5 C 10.1993,19.5271 11.5326,20.1938 12.5,21.5C 13.609,21.4431 14.609,21.1098 15.5,20.5C 15.3284,21.4916 15.6618,22.1583 16.5,22.5C 16.5,22.8333 16.5,23.1667 16.5,23.5C 12.5,23.5 8.5,23.5 4.5,23.5C 4.5,23.1667 4.5,22.8333 4.5,22.5C 5.16667,22.5 5.5,22.1667 5.5,21.5C 7.17876,21.7148 8.17876,21.0481 8.5,19.5 Z"/></g>
</svg>
