<?xml version="1.0" encoding="UTF-8"?>
<!DOCTYPE svg PUBLIC "-//W3C//DTD SVG 1.1//EN" "http://www.w3.org/Graphics/SVG/1.1/DTD/svg11.dtd">
<svg xmlns="http://www.w3.org/2000/svg" version="1.1" width="385px" height="131px" style="shape-rendering:geometricPrecision; text-rendering:geometricPrecision; image-rendering:optimizeQuality; fill-rule:evenodd; clip-rule:evenodd" xmlns:xlink="http://www.w3.org/1999/xlink">
<g><path style="opacity:1" fill="#fbfcfd" d="M -0.5,-0.5 C 125.5,-0.5 251.5,-0.5 377.5,-0.5C 353.557,14.1448 329.224,28.3115 304.5,42C 293.882,50.3171 291.215,60.4837 296.5,72.5C 298.554,76.9386 300.887,81.272 303.5,85.5C 304.002,86.521 304.668,86.6877 305.5,86C 305.359,77.0907 308.692,69.7574 315.5,64C 336.914,51.878 358.081,39.378 379,26.5C 380.765,23.9679 382.265,21.3013 383.5,18.5C 383.328,17.5084 383.662,16.8417 384.5,16.5C 384.5,54.5 384.5,92.5 384.5,130.5C 371.833,130.5 359.167,130.5 346.5,130.5C 356.374,125.45 358.04,118.283 351.5,109C 341.08,103.879 334.413,106.879 331.5,118C 332.036,124.023 335.036,128.19 340.5,130.5C 226.833,130.5 113.167,130.5 -0.5,130.5C -0.5,121.5 -0.5,112.5 -0.5,103.5C 0.5,103.5 1.5,103.5 2.5,103.5C 2.5,101.5 2.5,99.5 2.5,97.5C 3.87344,97.3433 5.20677,97.51 6.5,98C 7.11991,100.212 8.28657,102.046 10,103.5C 10.5,103.167 11,102.833 11.5,102.5C 11.02,100.051 10.02,97.8847 8.5,96C 12.0374,94.1735 12.3707,91.8402 9.5,89C 6.18323,88.5017 2.8499,88.335 -0.5,88.5C -0.5,80.5 -0.5,72.5 -0.5,64.5C 0.29819,67.2306 1.96486,69.3973 4.5,71C 19.7831,74.0472 25.6165,67.8805 22,52.5C 20.2111,50.771 18.0444,50.1043 15.5,50.5C 15.5,55.1667 15.5,59.8333 15.5,64.5C 12.5,64.5 9.5,64.5 6.5,64.5C 6.66551,60.4862 6.49885,56.4862 6,52.5C 3.95917,51.5769 1.7925,51.2436 -0.5,51.5C -0.5,34.1667 -0.5,16.8333 -0.5,-0.5 Z"/></g>
<g><path style="opacity:1" fill="#e3e5f0" d="M 380.5,-0.5 C 381.833,-0.5 383.167,-0.5 384.5,-0.5C 384.5,2.5 384.5,5.5 384.5,8.5C 383.566,5.38268 382.233,2.38268 380.5,-0.5 Z"/></g>
<g><path style="opacity:1" fill="#1f3c90" d="M 377.5,-0.5 C 378.5,-0.5 379.5,-0.5 380.5,-0.5C 382.233,2.38268 383.566,5.38268 384.5,8.5C 384.5,11.1667 384.5,13.8333 384.5,16.5C 383.662,16.8417 383.328,17.5084 383.5,18.5C 382.788,17.2613 381.788,16.7613 380.5,17C 352.614,35.769 324.614,54.269 296.5,72.5C 291.215,60.4837 293.882,50.3171 304.5,42C 329.224,28.3115 353.557,14.1448 377.5,-0.5 Z"/></g>
<g><path style="opacity:1" fill="#423b8d" d="M 383.5,18.5 C 382.265,21.3013 380.765,23.9679 379,26.5C 358.081,39.378 336.914,51.878 315.5,64C 308.692,69.7574 305.359,77.0907 305.5,86C 304.668,86.6877 304.002,86.521 303.5,85.5C 300.887,81.272 298.554,76.9386 296.5,72.5C 324.614,54.269 352.614,35.769 380.5,17C 381.788,16.7613 382.788,17.2613 383.5,18.5 Z"/></g>
<g><path style="opacity:1" fill="#091e82" d="M 55.5,39.5 C 56.525,39.8966 56.6917,40.5632 56,41.5C 53.6667,43.8333 51.3333,46.1667 49,48.5C 48.3333,47.8333 48.3333,47.1667 49,46.5C 51.3722,44.2968 53.5389,41.9635 55.5,39.5 Z"/></g>
<g><path style="opacity:1" fill="#27368b" d="M 9.5,41.5 C 14.4928,41.997 15.4928,44.1637 12.5,48C 7.38231,47.8242 6.38231,45.6576 9.5,41.5 Z"/></g>
<g><path style="opacity:1" fill="#26378b" d="M 57.5,42.5 C 59.8444,42.5062 61.1777,43.6729 61.5,46C 60.8218,48.5239 59.4885,50.6905 57.5,52.5C 63.8413,65.9699 59.508,72.4699 44.5,72C 42.033,76.8858 38.033,79.0525 32.5,78.5C 31.668,74.5031 33.168,71.8364 37,70.5C 37.499,66.1794 37.6657,61.8461 37.5,57.5C 42.8333,56.8333 45.1667,59.1667 44.5,64.5C 47.5,64.5 50.5,64.5 53.5,64.5C 53.6621,62.4727 53.4955,60.4727 53,58.5C 51.6439,57.6198 50.1439,57.2865 48.5,57.5C 48.1924,55.076 48.5258,52.7427 49.5,50.5C 52.5211,48.1456 55.1877,45.4789 57.5,42.5 Z"/></g>
<g><path style="opacity:1" fill="#22348a" d="M 94.5,41.5 C 96.352,42.5198 97.6853,44.0198 98.5,46C 97.1667,48 95.8333,50 94.5,52C 100.434,67.1602 95.4339,73.4935 79.5,71C 77.714,70.2155 76.214,69.0488 75,67.5C 74.5004,60.5079 74.3337,53.5079 74.5,46.5C 76.5,46.5 78.5,46.5 80.5,46.5C 80.3339,52.1764 80.5006,57.8431 81,63.5C 84,64.8333 87,64.8333 90,63.5C 91.5685,59.0826 90.0685,57.0826 85.5,57.5C 85.3367,55.1432 85.5034,52.8098 86,50.5C 89.0379,47.6306 91.8712,44.6306 94.5,41.5 Z"/></g>
<g><path style="opacity:1" fill="#23348a" d="M 156.5,41.5 C 160.264,42.385 161.264,44.5516 159.5,48C 154.148,48.1754 153.148,46.0087 156.5,41.5 Z"/></g>
<g><path style="opacity:1" fill="#27388c" d="M 221.5,41.5 C 223.525,42.5186 224.859,44.1853 225.5,46.5C 224.594,48.7475 223.261,50.7475 221.5,52.5C 224.231,55.9594 225.231,59.9594 224.5,64.5C 227.5,64.5 230.5,64.5 233.5,64.5C 233.815,60.1996 236.149,58.533 240.5,59.5C 241.665,67.9997 237.999,71.9997 229.5,71.5C 216.532,71.3676 203.532,71.2009 190.5,71C 186.308,68.7797 184.641,65.2797 185.5,60.5C 187.527,60.3379 189.527,60.5045 191.5,61C 192.337,62.0113 192.67,63.1779 192.5,64.5C 200.833,64.5 209.167,64.5 217.5,64.5C 217.662,62.4727 217.495,60.4727 217,58.5C 215.989,57.6634 214.822,57.33 213.5,57.5C 213.336,54.8127 213.503,52.146 214,49.5C 216.705,46.9638 219.205,44.2971 221.5,41.5 Z"/></g>
<g><path style="opacity:1" fill="#24368b" d="M 25.5,46.5 C 27.7925,46.2436 29.9592,46.5769 32,47.5C 32.4997,55.4931 32.6664,63.4931 32.5,71.5C 29.9556,71.8957 27.7889,71.229 26,69.5C 25.5003,61.8406 25.3336,54.1739 25.5,46.5 Z"/></g>
<g><path style="opacity:1" fill="#24368b" d="M 129.5,46.5 C 131.792,46.2436 133.959,46.5769 136,47.5C 136.499,53.1569 136.666,58.8236 136.5,64.5C 139.5,64.5 142.5,64.5 145.5,64.5C 144.628,59.5534 145.961,55.3868 149.5,52C 154.5,51.3333 159.5,51.3333 164.5,52C 167.882,54.0185 169.216,57.0185 168.5,61C 168.917,64.5206 167.917,67.5206 165.5,70C 154.833,72 144.167,72 133.5,70C 131.513,68.6811 130.346,66.8477 130,64.5C 129.501,58.5092 129.334,52.5092 129.5,46.5 Z"/></g>
<g><path style="opacity:1" fill="#28388c" d="M 243.5,46.5 C 245.792,46.2436 247.959,46.5769 250,47.5C 250.191,53.0829 250.691,58.5829 251.5,64C 254.167,64.6667 256.833,64.6667 259.5,64C 260.337,62.9887 260.67,61.8221 260.5,60.5C 262.5,60.5 264.5,60.5 266.5,60.5C 267.113,68.719 263.28,72.3856 255,71.5C 249.34,72.176 245.674,69.8426 244,64.5C 243.501,58.5092 243.334,52.5092 243.5,46.5 Z"/></g>
<g><path style="opacity:1" fill="#883481" d="M 372.5,51.5 C 373.441,53.0495 374.107,54.7162 374.5,56.5C 355.307,68.3941 335.973,80.8941 316.5,94C 314.561,94.9078 313.561,96.4078 313.5,98.5C 312.167,95.8333 312.167,93.1667 313.5,90.5C 314.404,89.791 314.737,88.791 314.5,87.5C 332.747,77.0333 350.414,65.5333 367.5,53C 369.025,51.9914 370.692,51.4914 372.5,51.5 Z"/></g>
<g><path style="opacity:1" fill="#293a8c" d="M -0.5,64.5 C -0.5,60.1667 -0.5,55.8333 -0.5,51.5C 1.7925,51.2436 3.95917,51.5769 6,52.5C 6.49885,56.4862 6.66551,60.4862 6.5,64.5C 9.5,64.5 12.5,64.5 15.5,64.5C 15.5,59.8333 15.5,55.1667 15.5,50.5C 18.0444,50.1043 20.2111,50.771 22,52.5C 25.6165,67.8805 19.7831,74.0472 4.5,71C 1.96486,69.3973 0.29819,67.2306 -0.5,64.5 Z"/></g>
<g><path style="opacity:1" fill="#24368b" d="M 107.5,51.5 C 112.511,51.3341 117.511,51.5007 122.5,52C 126.367,55.6602 127.534,60.1602 126,65.5C 123.467,70.1386 119.467,72.1386 114,71.5C 109.164,71.9967 105.831,69.9967 104,65.5C 102.608,60.0931 103.774,55.4265 107.5,51.5 Z"/></g>
<g><path style="opacity:1" fill="#1c3088" d="M 234.5,51.5 C 239.159,51.0146 240.492,52.848 238.5,57C 233.728,57.8104 232.395,55.9771 234.5,51.5 Z"/></g>
<g><path style="opacity:1" fill="#783784" d="M 372.5,51.5 C 370.692,51.4914 369.025,51.9914 367.5,53C 350.414,65.5333 332.747,77.0333 314.5,87.5C 314.737,88.791 314.404,89.791 313.5,90.5C 314.781,83.4467 318.447,77.9467 324.5,74C 339.5,65.5 354.5,57 369.5,48.5C 370.855,49.1882 371.855,50.1882 372.5,51.5 Z"/></g>
<g><path style="opacity:1" fill="#2c3a8d" d="M 63.5,57.5 C 65.7925,57.2436 67.9592,57.5769 70,58.5C 70.6667,63.1667 70.6667,67.8333 70,72.5C 67.882,76.825 64.382,78.825 59.5,78.5C 59.3379,76.4727 59.5045,74.4727 60,72.5C 61.0113,71.6634 62.1779,71.33 63.5,71.5C 63.5,66.8333 63.5,62.1667 63.5,57.5 Z"/></g>
<g><path style="opacity:1" fill="#f5f6fa" d="M 110.5,57.5 C 113.5,57.5 116.5,57.5 119.5,57.5C 119.5,59.8333 119.5,62.1667 119.5,64.5C 116.5,64.5 113.5,64.5 110.5,64.5C 110.5,62.1667 110.5,59.8333 110.5,57.5 Z"/></g>
<g><path style="opacity:1" fill="#f0f2f7" d="M 153.5,57.5 C 156.187,57.3359 158.854,57.5026 161.5,58C 162.576,59.7261 162.743,61.5594 162,63.5C 159.263,64.6105 156.429,64.7772 153.5,64C 152.232,61.8368 152.232,59.6702 153.5,57.5 Z"/></g>
<g><path style="opacity:1" fill="#23358a" d="M 172.5,57.5 C 174.467,57.2606 176.301,57.5939 178,58.5C 178.667,63.5 178.667,68.5 178,73.5C 175.464,76.9676 171.964,78.6342 167.5,78.5C 166.454,74.2214 167.954,71.5548 172,70.5C 172.499,66.1794 172.666,61.8461 172.5,57.5 Z"/></g>
<g><path style="opacity:1" fill="#9a2e7b" d="M 374.5,56.5 C 374.677,60.2343 374.344,63.9009 373.5,67.5C 372.883,67.3893 372.383,67.056 372,66.5C 353.205,79.8077 334.038,92.4744 314.5,104.5C 313.85,102.565 313.517,100.565 313.5,98.5C 313.561,96.4078 314.561,94.9078 316.5,94C 335.973,80.8941 355.307,68.3941 374.5,56.5 Z"/></g>
<g><path style="opacity:1" fill="#ad2b78" d="M 373.5,67.5 C 372.056,71.5444 369.722,75.0444 366.5,78C 354.141,84.3721 342.307,91.5387 331,99.5C 326.263,104.979 324.429,111.312 325.5,118.5C 324.178,118.67 323.011,118.337 322,117.5C 319.488,113.139 316.988,108.806 314.5,104.5C 334.038,92.4744 353.205,79.8077 372,66.5C 372.383,67.056 372.883,67.3893 373.5,67.5 Z"/></g>
<g><path style="opacity:1" fill="#25348a" d="M 253.5,75.5 C 258.159,75.0146 259.492,76.848 257.5,81C 252.001,81.8063 250.668,79.973 253.5,75.5 Z"/></g>
<g><path style="opacity:1" fill="#cf246e" d="M 126.5,88.5 C 129.187,88.3359 131.854,88.5026 134.5,89C 136.312,90.6269 136.479,92.1269 135,93.5C 133.521,92.244 131.855,91.244 130,90.5C 126.996,90.9697 125.496,92.803 125.5,96C 126.923,101.868 129.589,102.701 133.5,98.5C 132.5,97.8333 131.5,97.1667 130.5,96.5C 132.396,95.5344 134.396,95.2011 136.5,95.5C 136.5,98.1667 136.5,100.833 136.5,103.5C 133.242,102.932 129.909,102.766 126.5,103C 121.176,97.9986 121.176,93.1653 126.5,88.5 Z"/></g>
<g><path style="opacity:1" fill="#cf256e" d="M 155.5,88.5 C 158.909,88.2493 162.242,88.5827 165.5,89.5C 166.91,91.9492 166.576,94.1159 164.5,96C 165.802,98.2129 166.802,100.546 167.5,103C 166.207,103.49 164.873,103.657 163.5,103.5C 164.575,99.062 162.908,97.062 158.5,97.5C 158.5,99.5 158.5,101.5 158.5,103.5C 157.5,103.5 156.5,103.5 155.5,103.5C 155.5,98.5 155.5,93.5 155.5,88.5 Z"/></g>
<g><path style="opacity:1" fill="#ce216d" d="M 14.5,88.5 C 17.8984,88.1796 21.2317,88.513 24.5,89.5C 22.2573,90.4742 19.924,90.8076 17.5,90.5C 17.5,91.8333 17.5,93.1667 17.5,94.5C 26.8333,95.1667 26.8333,95.8333 17.5,96.5C 17.5,97.8333 17.5,99.1667 17.5,100.5C 20.1667,100.5 22.8333,100.5 25.5,100.5C 25.5,101.5 25.5,102.5 25.5,103.5C 21.8333,103.5 18.1667,103.5 14.5,103.5C 14.5,98.5 14.5,93.5 14.5,88.5 Z"/></g>
<g><path style="opacity:1" fill="#ce1b6c" d="M 28.5,88.5 C 32.226,88.1774 35.8927,88.5108 39.5,89.5C 36.9135,90.48 34.2469,90.8134 31.5,90.5C 31.5,91.8333 31.5,93.1667 31.5,94.5C 40.8333,95.1667 40.8333,95.8333 31.5,96.5C 31.5,98.8333 31.5,101.167 31.5,103.5C 30.5,103.5 29.5,103.5 28.5,103.5C 28.5,98.5 28.5,93.5 28.5,88.5 Z"/></g>
<g><path style="opacity:1" fill="#cf226e" d="M 44.5,88.5 C 46.1439,88.2865 47.6439,88.6198 49,89.5C 51.0068,94.0199 52.5068,98.6866 53.5,103.5C 52.5,103.5 51.5,103.5 50.5,103.5C 50.5038,99.3954 48.5038,97.8954 44.5,99C 43.8333,100.333 43.1667,101.667 42.5,103C 41.365,103.749 40.365,103.583 39.5,102.5C 41.568,97.9617 43.2347,93.295 44.5,88.5 Z"/></g>
<g><path style="opacity:1" fill="#cf2871" d="M 56.5,88.5 C 57.5,88.5 58.5,88.5 59.5,88.5C 59.5,90.5 59.5,92.5 59.5,94.5C 61.8333,94.5 64.1667,94.5 66.5,94.5C 66.5,92.5 66.5,90.5 66.5,88.5C 67.5,88.5 68.5,88.5 69.5,88.5C 69.5,93.5 69.5,98.5 69.5,103.5C 68.5,103.5 67.5,103.5 66.5,103.5C 66.5,101.5 66.5,99.5 66.5,97.5C 64.1667,97.5 61.8333,97.5 59.5,97.5C 59.5,99.5 59.5,101.5 59.5,103.5C 58.5,103.5 57.5,103.5 56.5,103.5C 56.5,98.5 56.5,93.5 56.5,88.5 Z"/></g>
<g><path style="opacity:1" fill="#e396b3" d="M 78.5,88.5 C 78.1734,93.2137 78.5067,97.8804 79.5,102.5C 80.1719,101.051 80.8386,99.7175 81.5,98.5C 81.5,100.167 81.5,101.833 81.5,103.5C 80.1667,103.5 78.8333,103.5 77.5,103.5C 77.1795,98.3054 77.5128,93.3054 78.5,88.5 Z"/></g>
<g><path style="opacity:1" fill="#cf256f" d="M 108.5,88.5 C 111.85,88.335 115.183,88.5017 118.5,89C 121.371,91.8402 121.037,94.1735 117.5,96C 119.02,97.8847 120.02,100.051 120.5,102.5C 120,102.833 119.5,103.167 119,103.5C 117.287,102.046 116.12,100.212 115.5,98C 114.207,97.51 112.873,97.3433 111.5,97.5C 111.5,99.5 111.5,101.5 111.5,103.5C 110.5,103.5 109.5,103.5 108.5,103.5C 108.5,98.5 108.5,93.5 108.5,88.5 Z"/></g>
<g><path style="opacity:1" fill="#cf256f" d="M 173.5,88.5 C 175.144,88.2865 176.644,88.6198 178,89.5C 179.802,94.0952 181.302,98.7619 182.5,103.5C 179.53,103.254 178.197,101.588 178.5,98.5C 176.801,98.3398 175.134,98.5065 173.5,99C 172.687,100.803 171.52,102.303 170,103.5C 169.5,103.167 169,102.833 168.5,102.5C 170.18,97.8123 171.847,93.1457 173.5,88.5 Z"/></g>
<g><path style="opacity:1" fill="#d02c72" d="M 237.5,88.5 C 239.144,88.2865 240.644,88.6198 242,89.5C 246.655,101.68 248.488,101.347 247.5,88.5C 248.5,88.5 249.5,88.5 250.5,88.5C 250.5,93.5 250.5,98.5 250.5,103.5C 248.278,103.822 246.444,103.155 245,101.5C 241.011,90.9116 239.511,91.5782 240.5,103.5C 239.5,103.5 238.5,103.5 237.5,103.5C 237.5,98.5 237.5,93.5 237.5,88.5 Z"/></g>
<g><path style="opacity:1" fill="#d23877" d="M -0.5,88.5 C 2.8499,88.335 6.18323,88.5017 9.5,89C 12.3707,91.8402 12.0374,94.1735 8.5,96C 10.02,97.8847 11.02,100.051 11.5,102.5C 11,102.833 10.5,103.167 10,103.5C 8.28657,102.046 7.11991,100.212 6.5,98C 5.20677,97.51 3.87344,97.3433 2.5,97.5C 2.5,99.5 2.5,101.5 2.5,103.5C 1.5,103.5 0.5,103.5 -0.5,103.5C -0.5,98.5 -0.5,93.5 -0.5,88.5 Z"/></g>
<g><path style="opacity:1" fill="#f9eff3" d="M 2.5,90.5 C 4.16667,90.5 5.83333,90.5 7.5,90.5C 7.5,91.8333 7.5,93.1667 7.5,94.5C 5.83333,94.5 4.16667,94.5 2.5,94.5C 2.5,93.1667 2.5,91.8333 2.5,90.5 Z"/></g>
<g><path style="opacity:1" fill="#f6e0e9" d="M 111.5,90.5 C 113.977,90.0508 115.977,90.7175 117.5,92.5C 116.278,94.9783 114.278,95.9783 111.5,95.5C 111.5,93.8333 111.5,92.1667 111.5,90.5 Z"/></g>
<g><path style="opacity:1" fill="#f8e7ed" d="M 158.5,90.5 C 160.948,90.0101 162.615,90.8434 163.5,93C 162.381,94.876 160.714,95.7093 158.5,95.5C 158.5,93.8333 158.5,92.1667 158.5,90.5 Z"/></g>
<g><path style="opacity:1" fill="#cf2670" d="M 185.5,88.5 C 187.144,88.2865 188.644,88.6198 190,89.5C 194.655,101.68 196.488,101.347 195.5,88.5C 196.5,88.5 197.5,88.5 198.5,88.5C 198.5,93.5 198.5,98.5 198.5,103.5C 196.856,103.714 195.356,103.38 194,102.5C 192.08,99.6612 190.413,96.6612 189,93.5C 188.502,96.8168 188.335,100.15 188.5,103.5C 187.5,103.5 186.5,103.5 185.5,103.5C 185.5,98.5 185.5,93.5 185.5,88.5 Z"/></g>
<g><path style="opacity:1" fill="#f5e0e8" d="M 46.5,91.5 C 47.339,92.6412 48.0057,93.9745 48.5,95.5C 47.675,96.3857 46.675,96.719 45.5,96.5C 45.6287,94.7839 45.962,93.1172 46.5,91.5 Z"/></g>
<g><path style="opacity:1" fill="#cf246e" d="M 143.5,88.5 C 145.144,88.2865 146.644,88.6198 148,89.5C 149.802,94.0952 151.302,98.7619 152.5,103.5C 149.53,103.254 148.197,101.588 148.5,98.5C 146.801,98.3398 145.134,98.5065 143.5,99C 142.687,100.803 141.52,102.303 140,103.5C 139.5,103.167 139,102.833 138.5,102.5C 140.18,97.8123 141.847,93.1457 143.5,88.5 Z"/></g>
<g><path style="opacity:1" fill="#f5dae4" d="M 144.5,92.5 C 146.121,92.7869 147.121,93.7869 147.5,95.5C 146.675,96.3857 145.675,96.719 144.5,96.5C 144.5,95.1667 144.5,93.8333 144.5,92.5 Z"/></g>
<g><path style="opacity:1" fill="#f6e2ea" d="M 175.5,91.5 C 176.788,93.0348 176.788,94.7015 175.5,96.5C 174.334,94.8327 174.334,93.166 175.5,91.5 Z"/></g>
<g><path style="opacity:1" fill="#d13274" d="M 78.5,88.5 C 79.5,88.5 80.5,88.5 81.5,88.5C 81.1558,95.8148 82.8224,95.9815 86.5,89C 87.8333,88.3333 89.1667,88.3333 90.5,89C 88.2256,90.7651 86.5589,92.9318 85.5,95.5C 86.7444,98.0867 88.411,100.42 90.5,102.5C 89.277,103.614 87.9437,103.781 86.5,103C 85.3783,100.876 83.8783,99.0429 82,97.5C 81.6012,97.7284 81.4346,98.0618 81.5,98.5C 80.8386,99.7175 80.1719,101.051 79.5,102.5C 78.5067,97.8804 78.1734,93.2137 78.5,88.5 Z"/></g>
<g><path style="opacity:1" fill="#cf256f" d="M 207.5,88.5 C 210.518,88.3354 213.518,88.502 216.5,89C 219.167,91 219.167,93 216.5,95C 219.399,98.1558 219.065,100.822 215.5,103C 212.854,103.497 210.187,103.664 207.5,103.5C 207.5,98.5 207.5,93.5 207.5,88.5 Z"/></g>
<g><path style="opacity:1" fill="#f8ecf2" d="M 210.5,90.5 C 211.833,90.5 213.167,90.5 214.5,90.5C 214.5,91.8333 214.5,93.1667 214.5,94.5C 213.167,94.5 211.833,94.5 210.5,94.5C 210.5,93.1667 210.5,91.8333 210.5,90.5 Z"/></g>
<g><path style="opacity:1" fill="#d02c72" d="M 254.5,88.5 C 255.5,88.5 256.5,88.5 257.5,88.5C 257.156,95.8148 258.822,95.9815 262.5,89C 263.833,88.3333 265.167,88.3333 266.5,89C 264.226,90.7651 262.559,92.9318 261.5,95.5C 262.744,98.0867 264.411,100.42 266.5,102.5C 265.167,103.833 263.833,103.833 262.5,102.5C 258.589,95.8263 256.923,96.1596 257.5,103.5C 256.5,103.5 255.5,103.5 254.5,103.5C 254.5,98.5 254.5,93.5 254.5,88.5 Z"/></g>
<g><path style="opacity:1" fill="#ce216d" d="M 225.5,88.5 C 227.144,88.2865 228.644,88.6198 230,89.5C 231.802,94.0952 233.302,98.7619 234.5,103.5C 231.53,103.254 230.197,101.588 230.5,98.5C 228.5,98.5 226.5,98.5 224.5,98.5C 224.813,102.019 223.48,103.353 220.5,102.5C 222.175,97.805 223.842,93.1383 225.5,88.5 Z"/></g>
<g><path style="opacity:1" fill="#f2e0e9" d="M 226.5,92.5 C 228.026,93.1047 229.026,94.2714 229.5,96C 228.552,96.4828 227.552,96.6495 226.5,96.5C 226.5,95.1667 226.5,93.8333 226.5,92.5 Z"/></g>
<g><path style="opacity:1" fill="#faf2f6" d="M 210.5,96.5 C 213.95,95.7564 215.616,97.0897 215.5,100.5C 213.833,100.5 212.167,100.5 210.5,100.5C 210.5,99.1667 210.5,97.8333 210.5,96.5 Z"/></g>
<g><path style="opacity:1" fill="#d02970" d="M 96.5,88.5 C 98.7659,88.1412 100.599,88.8078 102,90.5C 103.205,94.6163 104.705,98.6163 106.5,102.5C 105.311,103.429 103.978,103.762 102.5,103.5C 102.442,99.2125 100.442,97.8791 96.5,99.5C 95.7542,100.736 95.4208,102.07 95.5,103.5C 94.1266,103.657 92.7932,103.49 91.5,103C 93.8634,98.41 95.53,93.5767 96.5,88.5 Z"/></g>
<g><path style="opacity:1" fill="#f2d4e0" d="M 98.5,91.5 C 99.9313,92.7804 100.598,94.4471 100.5,96.5C 99.5,96.5 98.5,96.5 97.5,96.5C 97.6287,94.7839 97.962,93.1172 98.5,91.5 Z"/></g>
<g><path style="opacity:1" fill="#ce146d" d="M 346.5,130.5 C 344.5,130.5 342.5,130.5 340.5,130.5C 335.036,128.19 332.036,124.023 331.5,118C 334.413,106.879 341.08,103.879 351.5,109C 358.04,118.283 356.374,125.45 346.5,130.5 Z"/></g>
</svg>
